<?xml version="1.0" encoding="iso-8859-1"?>
<!-- Generator: Adobe Illustrator 19.0.0, SVG Export Plug-In . SVG Version: 6.00 Build 0)  -->
<svg version="1.1" id="Layer_1" xmlns="http://www.w3.org/2000/svg" xmlns:xlink="http://www.w3.org/1999/xlink" x="0px" y="0px"
	 viewBox="0 0 512 512" style="enable-background:new 0 0 512 512;" xml:space="preserve">
<path style="fill:#314E55;" d="M227.759,174.482c1.297,0.604,2.693,0.906,4.09,0.906c1.34,0,2.674-0.274,3.925-0.83
	c2.49-1.113,61.071-27.528,75.703-65.66c7.189-18.726,8.703-38.462,4.264-55.594c-4.745-18.292-15.642-31.547-30.679-37.321
	c-16.825-6.462-36.226-2.311-53.024,11.009c-11.759-6.293-35.264-16.944-50.67-11.009c-15.038,5.774-25.934,19.028-30.679,37.321
	c-4.439,17.132-2.924,36.868,4.264,55.594C169.552,146.926,225.392,173.369,227.759,174.482z"/>
<path style="fill:#E65F58;" d="M169.392,58.152c3.137-12.085,9.849-20.66,18.901-24.132c0.976-0.377,2.189-0.547,3.585-0.547
	c9.066,0,25.91,7.274,36.344,13.566c3.731,2.236,8.5,1.736,11.651-1.273c12.406-11.792,26.708-16.198,38.264-11.745
	c9.052,3.472,15.764,12.047,18.901,24.132c3.439,13.264,2.16,28.821-3.599,43.821c-8.976,23.387-44.236,44.585-61.448,53.019
	c-12.222-6.368-49.151-27.358-59-53.019C167.231,86.973,165.953,71.416,169.392,58.152z"/>
<g>
	<path style="fill:#314E55;" d="M347.774,170.558c-90.557,0-164.226,73.67-164.226,164.226c0,32.047,9.236,63.094,26.708,89.811
		c2.92,4.462,8.901,5.708,13.373,2.792c4.467-2.924,5.717-8.906,2.797-13.377c-15.41-23.557-23.557-50.953-23.557-79.226
		c0-79.906,65.005-144.906,144.906-144.906s144.906,65,144.906,144.906S427.675,479.69,347.774,479.69
		c-25.755,0-51.043-6.84-73.132-19.783c-4.604-2.689-10.514-1.151-13.217,3.453c-2.698,4.604-1.151,10.528,3.453,13.227
		c25.047,14.67,53.712,22.425,82.896,22.425c90.557,0,164.226-73.67,164.226-164.226S438.33,170.558,347.774,170.558z"/>
	<path style="fill:#314E55;" d="M268.552,248.473c-3.25-4.226-9.325-5.028-13.547-1.774c-4.231,3.245-5.024,9.311-1.774,13.547
		c17.608,22.925,26.92,50.377,26.92,79.368c0,71.915-58.505,130.415-130.415,130.415s-130.415-58.5-130.415-130.415
		s58.505-130.415,130.415-130.415c17.679,0,34.821,3.472,50.948,10.321c4.929,2.113,10.585-0.207,12.67-5.113
		c2.085-4.906-0.203-10.575-5.113-12.66c-18.533-7.877-38.217-11.868-58.505-11.868C67.17,189.879,0,257.048,0,339.614
		S67.17,489.35,149.736,489.35s149.736-67.17,149.736-149.736C299.472,306.322,288.778,274.812,268.552,248.473z"/>
</g>
<g>
</g>
<g>
</g>
<g>
</g>
<g>
</g>
<g>
</g>
<g>
</g>
<g>
</g>
<g>
</g>
<g>
</g>
<g>
</g>
<g>
</g>
<g>
</g>
<g>
</g>
<g>
</g>
<g>
</g>
</svg>
